<svg xmlns="http://www.w3.org/2000/svg" viewBox="0 0 64 64" width="64" height="64">
  <defs>
    <linearGradient id="bg" x1="0" y1="0" x2="0" y2="1">
      <stop offset="0%" stop-color="#fb923c"/>
      <stop offset="100%" stop-color="#ea580c"/>
    </linearGradient>
  </defs>
  <rect width="64" height="64" rx="14" fill="url(#bg)"/>
  <!-- Fox ears -->
  <path d="M16 18 L22 30 L26 24 Z" fill="#ffffff"/>
  <path d="M48 18 L42 30 L38 24 Z" fill="#ffffff"/>
  <path d="M19 22 L22 28 L24 25 Z" fill="#9a3412"/>
  <path d="M45 22 L42 28 L40 25 Z" fill="#9a3412"/>
  <!-- Fox face -->
  <path d="M32 22 C 22 22 18 30 20 40 C 22 48 28 52 32 52 C 36 52 42 48 44 40 C 46 30 42 22 32 22 Z" fill="#ffffff"/>
  <!-- Fox cheeks (orange) -->
  <path d="M22 36 C 22 30 26 26 32 26 C 38 26 42 30 42 36 L 38 38 L 32 36 L 26 38 Z" fill="#fb923c"/>
  <!-- Eyes -->
  <ellipse cx="26" cy="38" rx="2.2" ry="2.6" fill="#1f2937"/>
  <ellipse cx="38" cy="38" rx="2.2" ry="2.6" fill="#1f2937"/>
  <circle cx="26.7" cy="37.3" r="0.8" fill="#ffffff"/>
  <circle cx="38.7" cy="37.3" r="0.8" fill="#ffffff"/>
  <!-- Nose -->
  <ellipse cx="32" cy="44" rx="1.8" ry="1.4" fill="#1f2937"/>
  <!-- Mouth -->
  <path d="M32 45 L32 47 M32 47 Q 30 48 28.5 47 M32 47 Q 34 48 35.5 47" stroke="#1f2937" stroke-width="1.2" fill="none" stroke-linecap="round"/>
</svg>
